<svg width="250" height="58" viewBox="0 0 250 58" fill="none" xmlns="http://www.w3.org/2000/svg">
<path d="M22.7162 57.5C10.1662 57.5 0 47.3338 0 34.7838C0 22.2338 10.1662 12.0676 22.7162 12.0676C29.6125 12.0676 35.8875 15.1189 40.0162 20.0865L32.2562 27.8465C29.5262 25.1165 26.2538 23.6351 22.7162 23.6351C16.355 23.6351 11.2412 28.5351 11.2412 34.7838C11.2412 41.0324 16.355 45.9324 22.7162 45.9324C27.6162 45.9324 31.0238 43.5189 32.7988 39.4757H22.7162V33.0595H42.59V35.473C42.8587 39.3054 43.1275 43.1378 43.3962 46.9703C40.9825 53.5541 34.7938 57.5 22.7162 57.5Z" fill="#202020"/>
<path d="M60.6725 57V12.5H71.1825V57H60.6725Z" fill="#202020"/>
<path d="M89.7613 57.5C77.2113 57.5 67.045 47.3338 67.045 34.7838C67.045 22.2338 77.2113 12.0676 89.7613 12.0676C102.311 12.0676 112.478 22.2338 112.478 34.7838C112.478 47.3338 102.311 57.5 89.7613 57.5ZM89.7613 45.9324C95.5925 45.9324 101.236 41.0324 101.236 34.7838C101.236 28.5351 95.5925 23.6351 89.7613 23.6351C83.93 23.6351 78.2863 28.5351 78.2863 34.7838C78.2863 41.0324 83.93 45.9324 89.7613 45.9324Z" fill="#202020"/>
<path d="M129.079 57.5C116.529 57.5 106.362 47.3338 106.362 34.7838C106.362 22.2338 116.529 12.0676 129.079 12.0676C135.975 12.0676 142.25 15.1189 146.379 20.0865L138.619 27.8465C135.889 25.1165 132.616 23.6351 129.079 23.6351C122.718 23.6351 117.604 28.5351 117.604 34.7838C117.604 41.0324 122.718 45.9324 129.079 45.9324C133.979 45.9324 137.386 43.5189 139.161 39.4757H129.079V33.0595H148.952V35.473C149.221 39.3054 149.49 43.1378 149.759 46.9703C147.345 53.5541 141.156 57.5 129.079 57.5Z" fill="#202020"/>
<path d="M165.65 57V12.5H196.344V23.5H176.16V31.5H194.1V41H176.16V57H165.65Z" fill="#202020"/>
<path d="M222.428 57.5C215.191 57.5 209.634 54.373 206.36 49.3189L215.46 44.4189C216.439 45.9865 218.791 47.6405 221.455 47.6405C224.271 47.6405 226.171 46.3243 226.171 44.5054C226.171 40.8514 218.024 40.2378 212.824 38.3243C206.549 35.9108 202.42 32.173 202.42 26.2135C202.42 20.4216 207.234 16.5 214.558 16.5C220.128 16.5 224.721 18.7514 227.621 23.1649L218.862 27.8465C217.97 26.5297 216.352 25.4432 214.644 25.4432C212.578 25.4432 211.171 26.4432 211.171 27.9243C211.171 31.0514 219.862 31.2216 224.976 33.3811C231.793 36.1108 235.676 39.7649 235.676 45.4216C235.676 51.5514 230.106 57.5 222.428 57.5Z" fill="#202020"/>
</svg>
