<svg width="194" height="40" viewBox="0 0 194 40" fill="none" xmlns="http://www.w3.org/2000/svg">
<path d="M12.636 29.5L5.03599 18.2V32H2.03599V7.84H4.91599L12.636 19.16V7.84H15.636V32H12.636V29.5Z" fill="#2E2E2E"/>
<path d="M22.784 7.84H31.784C34.724 7.84 37.124 8.56 38.984 10C40.844 11.44 41.784 13.44 41.784 16C41.784 17.52 41.424 18.88 40.704 20.08C39.984 21.28 38.984 22.24 37.704 22.96L43.224 32H39.504L34.344 23.44H25.784V32H22.784V7.84ZM25.784 20.64H32.064C33.744 20.64 35.064 20.12 36.024 19.08C36.984 18.04 37.464 16.76 37.464 15.24C37.464 13.68 36.984 12.44 36.024 11.52C35.064 10.6 33.744 10.12 32.064 10.12H25.784V20.64Z" fill="#2E2E2E"/>
<path d="M51.532 32H48.152L54.712 7.84H58.232L64.792 32H61.412L60.072 27.2H52.872L51.532 32ZM53.632 24.4H59.312L56.472 13.48L53.632 24.4Z" fill="#2E2E2E"/>
<path d="M72.238 32H69.238V7.84H72.238V32Z" fill="#2E2E2E"/>
<path d="M78.694 7.84H88.374V10.64H81.694V18.2H87.334V21H81.694V29.2H88.494V32H78.694V7.84Z" fill="#2E2E2E"/>
<path d="M93.89 32V7.84H106.85V10.64H96.89V18.6H104.21V21.4H96.89V32H93.89Z" fill="#2E2E2E"/>
<path d="M112.551 32H109.171L115.731 7.84H119.251L125.811 32H122.431L121.091 27.2H113.891L112.551 32ZM114.651 24.4H120.331L117.491 13.48L114.651 24.4Z" fill="#2E2E2E"/>
<path d="M136.568 29.5L128.968 18.2V32H125.968V7.84H128.848L136.568 19.16V7.84H139.568V32H136.568V29.5Z" fill="#2E2E2E"/>
<path d="M158.261 32H144.581V7.84H157.541V10.64H147.581V18.6H154.901V21.4H147.581V32H144.581H158.261Z" fill="#2E2E2E"/>
<path d="M164.717 7.84H173.717C176.657 7.84 179.057 8.56 180.917 10C182.777 11.44 183.717 13.44 183.717 16C183.717 17.52 183.357 18.88 182.637 20.08C181.917 21.28 180.917 22.24 179.637 22.96L185.157 32H181.437L176.277 23.44H167.717V32H164.717V7.84ZM167.717 20.64H174.007C175.687 20.64 177.007 20.12 177.967 19.08C178.927 18.04 179.407 16.76 179.407 15.24C179.407 13.68 178.927 12.44 177.967 11.52C177.007 10.6 175.687 10.12 174.007 10.12H167.717V20.64Z" fill="#2E2E2E"/>
<path d="M193.033 19.92C193.033 22.4 192.473 24.4933 191.353 26.2C190.233 27.9067 188.663 29.12 186.643 29.84C184.623 30.56 182.263 30.92 179.563 30.92C177.723 30.92 176.073 30.7267 174.613 30.34C173.153 29.9533 171.953 29.3867 171.013 28.64L172.033 26.24C172.833 26.8667 173.813 27.36 174.973 27.72C176.133 28.08 177.373 28.26 178.693 28.26C180.613 28.26 182.173 27.8933 183.373 27.16C184.573 26.4267 185.173 25.1867 185.173 23.44V22.4C184.213 23.4533 182.973 24.2 181.453 24.64C179.933 25.08 178.273 25.3 176.473 25.3C174.073 25.3 172.063 24.66 170.443 23.38C168.823 22.1 168.013 20.3333 168.013 18.08C168.013 15.7467 168.793 13.9 170.353 12.54C171.913 11.18 173.863 10.5 176.203 10.5C178.543 10.5 180.373 11.1 181.693 12.3L182.293 9.32H185.053V22.4C185.953 21.8267 186.643 21.08 187.123 20.16C187.603 19.24 187.843 18.2267 187.843 17.12C187.843 15.2267 187.333 13.72 186.313 12.6C185.293 11.48 183.823 10.92 181.903 10.92C180.843 10.92 179.893 11.1267 179.053 11.54C178.213 11.9533 177.553 12.5 177.073 13.18L176.113 10.12C176.813 9.49333 177.673 9.01333 178.693 8.68C179.713 8.34667 180.823 8.18 182.023 8.18C184.423 8.18 186.373 8.86667 187.873 10.24C189.373 11.6133 190.123 13.5733 190.123 16.12C190.123 17.4133 189.833 18.5733 189.253 19.6C188.673 20.6267 187.873 21.4667 186.853 22.12L193.033 19.92Z" fill="#D32F2F"/>
</svg>
