<?xml version="1.0" encoding="UTF-8"?>
<svg id="Disseny" xmlns="http://www.w3.org/2000/svg" viewBox="0 0 800 165">
  <defs>
    <style>
      .cls-1 {
        stroke-width: 0px;
      }
    </style>
  </defs>
  <path class="cls-1" d="M2.91,109.34v-2.12h29.39v2.12c0,15.05,12.7,23.75,37.15,25.63v26.8C25.72,159.42,2.91,141.32,2.91,109.34ZM124.71,116.39v-1.65c0-10.82-7.29-15.28-30.57-18.57l-37.15-5.17C23.37,86.3,5.97,72.66,5.97,49.62v-2.35C5.97,20.7,28.77,4.24,69.45,2.36v26.33c-21.63,1.18-33.62,7.29-33.62,17.87v1.88c0,9.4,7.29,13.64,27.98,16.46l37.38,5.17c36.44,4.94,53.37,18.34,53.37,43.26v2.35c0,27.98-24.69,45.14-69.13,46.32v-26.57c26.8-.71,39.27-7.76,39.27-19.04ZM151.27,52.68v2.12h-29.39v-2.12c0-14.81-11.99-22.57-36.44-23.98V2.36c42.79,1.88,65.83,19.28,65.83,50.32Z"/>
  <path class="cls-1" d="M185.76,4.95h29.39v154.24h-29.39V4.95Z"/>
  <path class="cls-1" d="M251.95,159.19V4.95h29.39v154.24h-29.39ZM326.48,132.85c38.09,0,56.66-15.75,56.66-48.67v-3.76c0-32.68-19.04-49.14-56.9-49.14h-28.92V4.95h29.16c56.66,0,86.52,26.1,86.52,75.71v3.06c0,49.61-29.62,75.47-86.52,75.47h-29.16v-26.33h29.16Z"/>
  <path class="cls-1" d="M434.6,83.48v-2.59c0-45.61,31.98-75.71,82.06-78.53v27.51c-33.39,2.35-52.2,20.93-52.2,50.79v3.29c0,30.1,18.81,47.96,52.2,50.32v27.51c-50.08-2.82-82.06-32.92-82.06-78.3ZM584.61,83.95v-3.29c0-29.86-18.81-48.44-51.96-50.79V2.36c50.32,2.82,81.82,32.92,81.82,78.53v2.59c0,45.38-31.51,75.24-81.82,78.3v-27.51c31.51-2.82,51.96-22.34,51.96-50.32Z"/>
  <path class="cls-1" d="M763.11,159.19L643.91,4.95h33.39l119.21,154.24h-33.39ZM672.83,159.19h-28.92V31.04l28.92,37.38v90.76ZM767.58,4.95h28.92v128.14l-28.92-37.38V4.95Z"/>
</svg>